<svg width="405" height="273" viewBox="0 0 405 273" fill="none" xmlns="http://www.w3.org/2000/svg">
<foreignObject x="-30" y="-30" width="465" height="333"><div xmlns="http://www.w3.org/1999/xhtml" style="backdrop-filter:blur(15px);clip-path:url(#bgblur_1_911_794_clip_path);height:100%;width:100%"></div></foreignObject><g data-figma-bg-blur-radius="30">
<g clip-path="url(#clip0_911_794)">
<path d="M0 20C0 8.9543 8.95431 0 20 0H385C396.046 0 405 8.95431 405 20V253C405 264.046 396.046 273 385 273H20C8.95429 273 0 264.046 0 253V20Z" fill="url(#paint0_linear_911_794)" fill-opacity="0.8"/>
<rect y="59" width="404" height="160" fill="white"/>
<path d="M162 156.632L170.959 147.87V110.226L162 119.164V156.632Z" stroke="#5CDE66" stroke-width="2"/>
<path d="M185.104 134.035L176.617 142.336V104.581L185.104 96.1129V134.035Z" stroke="#5CDE66" stroke-width="2"/>
<path d="M190.762 128.5V90.4678L199.25 82V120.199L190.762 128.5Z" stroke="#5CDE66" stroke-width="2"/>
<path d="M204.908 120.21V82.0111L213.395 90.5122V128.544L204.908 120.21Z" stroke="#5CDE66" stroke-width="2"/>
<path d="M219.053 134.1V96.1796L227.54 104.681V142.434L219.053 134.1Z" stroke="#5CDE66" stroke-width="2"/>
<path d="M233.198 147.99V110.348L242 119.164V156.632L233.198 147.99Z" stroke="#5CDE66" stroke-width="2"/>
<path d="M233.356 152.565L234.599 153.799L240.897 160.095L240.92 160.073L240.921 160.074L233.356 167.652V152.565Z" stroke="#5CDE66" stroke-width="2"/>
<path d="M179.287 144.23L176.774 146.743V173.419L185.261 181.887V143.965L182.38 141.147L179.287 144.23Z" stroke="#5CDE66" stroke-width="2"/>
<path d="M170.802 152.713L163.418 160.094L170.802 167.46V152.713Z" stroke="#5CDE66" stroke-width="2"/>
<path d="M199.407 157.801V196L190.919 187.532V149.5L199.407 157.801Z" stroke="#5CDE66" stroke-width="2"/>
<path d="M205.065 157.784L213.552 149.434V187.488L205.065 195.989V157.784Z" stroke="#5CDE66" stroke-width="2"/>
<path d="M219.21 181.82V143.867L221.913 141.208L227.383 146.637V173.634L219.21 181.82Z" stroke="#5CDE66" stroke-width="2"/>
<path d="M149.5 37V25.08H151.676V35.08H156.78V37H149.5ZM164.867 37.192C163.992 37.192 163.176 37.0373 162.419 36.728C161.662 36.4187 161 35.9867 160.435 35.432C159.87 34.8773 159.427 34.2267 159.107 33.48C158.798 32.7227 158.643 31.9067 158.643 31.032C158.643 30.1467 158.798 29.3307 159.107 28.584C159.416 27.8373 159.854 27.1867 160.419 26.632C160.984 26.0773 161.646 25.6507 162.403 25.352C163.16 25.0427 163.982 24.888 164.867 24.888C165.752 24.888 166.574 25.0427 167.331 25.352C168.088 25.6613 168.75 26.0933 169.315 26.648C169.88 27.192 170.318 27.8373 170.627 28.584C170.947 29.3307 171.107 30.1467 171.107 31.032C171.107 31.9067 170.947 32.7227 170.627 33.48C170.307 34.2267 169.864 34.8773 169.299 35.432C168.734 35.9867 168.072 36.4187 167.315 36.728C166.568 37.0373 165.752 37.192 164.867 37.192ZM164.867 35.208C165.454 35.208 165.992 35.1067 166.483 34.904C166.974 34.6907 167.4 34.3973 167.763 34.024C168.136 33.6507 168.419 33.208 168.611 32.696C168.814 32.184 168.915 31.6293 168.915 31.032C168.915 30.4347 168.814 29.8853 168.611 29.384C168.419 28.872 168.136 28.4293 167.763 28.056C167.4 27.672 166.974 27.3787 166.483 27.176C165.992 26.9733 165.454 26.872 164.867 26.872C164.291 26.872 163.758 26.9733 163.267 27.176C162.776 27.3787 162.344 27.672 161.971 28.056C161.608 28.4293 161.326 28.872 161.123 29.384C160.92 29.8853 160.819 30.4347 160.819 31.032C160.819 31.6293 160.92 32.184 161.123 32.696C161.326 33.208 161.608 33.6507 161.971 34.024C162.344 34.3973 162.776 34.6907 163.267 34.904C163.758 35.1067 164.291 35.208 164.867 35.208ZM179.81 37.192C178.957 37.192 178.167 37.0373 177.442 36.728C176.717 36.4187 176.082 35.9867 175.538 35.432C174.994 34.8773 174.567 34.2267 174.258 33.48C173.959 32.7333 173.81 31.9173 173.81 31.032C173.81 30.1467 173.954 29.3307 174.242 28.584C174.541 27.8267 174.957 27.176 175.49 26.632C176.034 26.0773 176.669 25.6507 177.394 25.352C178.119 25.0427 178.909 24.888 179.762 24.888C180.615 24.888 181.378 25.032 182.05 25.32C182.733 25.608 183.309 25.992 183.778 26.472C184.247 26.9413 184.583 27.4587 184.786 28.024L182.85 28.952C182.626 28.3333 182.247 27.832 181.714 27.448C181.181 27.064 180.53 26.872 179.762 26.872C179.015 26.872 178.354 27.048 177.778 27.4C177.213 27.752 176.77 28.2373 176.45 28.856C176.141 29.4747 175.986 30.2 175.986 31.032C175.986 31.864 176.146 32.5947 176.466 33.224C176.797 33.8427 177.25 34.328 177.826 34.68C178.402 35.032 179.063 35.208 179.81 35.208C180.418 35.208 180.978 35.0907 181.49 34.856C182.002 34.6107 182.413 34.2693 182.722 33.832C183.031 33.384 183.186 32.856 183.186 32.248V31.336L184.178 32.2H179.762V30.36H185.362V31.56C185.362 32.4773 185.207 33.288 184.898 33.992C184.589 34.696 184.167 35.288 183.634 35.768C183.111 36.2373 182.519 36.5947 181.858 36.84C181.197 37.0747 180.514 37.192 179.81 37.192ZM194.076 37.192C193.201 37.192 192.385 37.0373 191.628 36.728C190.871 36.4187 190.209 35.9867 189.644 35.432C189.079 34.8773 188.636 34.2267 188.316 33.48C188.007 32.7227 187.852 31.9067 187.852 31.032C187.852 30.1467 188.007 29.3307 188.316 28.584C188.625 27.8373 189.063 27.1867 189.628 26.632C190.193 26.0773 190.855 25.6507 191.612 25.352C192.369 25.0427 193.191 24.888 194.076 24.888C194.961 24.888 195.783 25.0427 196.54 25.352C197.297 25.6613 197.959 26.0933 198.524 26.648C199.089 27.192 199.527 27.8373 199.836 28.584C200.156 29.3307 200.316 30.1467 200.316 31.032C200.316 31.9067 200.156 32.7227 199.836 33.48C199.516 34.2267 199.073 34.8773 198.508 35.432C197.943 35.9867 197.281 36.4187 196.524 36.728C195.777 37.0373 194.961 37.192 194.076 37.192ZM194.076 35.208C194.663 35.208 195.201 35.1067 195.692 34.904C196.183 34.6907 196.609 34.3973 196.972 34.024C197.345 33.6507 197.628 33.208 197.82 32.696C198.023 32.184 198.124 31.6293 198.124 31.032C198.124 30.4347 198.023 29.8853 197.82 29.384C197.628 28.872 197.345 28.4293 196.972 28.056C196.609 27.672 196.183 27.3787 195.692 27.176C195.201 26.9733 194.663 26.872 194.076 26.872C193.5 26.872 192.967 26.9733 192.476 27.176C191.985 27.3787 191.553 27.672 191.18 28.056C190.817 28.4293 190.535 28.872 190.332 29.384C190.129 29.8853 190.028 30.4347 190.028 31.032C190.028 31.6293 190.129 32.184 190.332 32.696C190.535 33.208 190.817 33.6507 191.18 34.024C191.553 34.3973 191.985 34.6907 192.476 34.904C192.967 35.1067 193.5 35.208 194.076 35.208ZM207.334 37V25.08H209.414L213.878 31.144H212.886L217.254 25.08H219.334V37H217.142V27.56L217.99 27.768L213.462 33.8H213.206L208.79 27.768L209.51 27.56V37H207.334ZM221.76 37L225.872 25.08H228.688L232.8 37H230.432L229.584 34.44H224.976L224.112 37H221.76ZM225.6 32.52H228.96L226.976 26.584H227.584L225.6 32.52ZM235.246 37V25.08H239.678C240.489 25.08 241.204 25.2293 241.822 25.528C242.452 25.816 242.942 26.2427 243.294 26.808C243.646 27.3627 243.822 28.04 243.822 28.84C243.822 29.6613 243.625 30.36 243.23 30.936C242.846 31.512 242.324 31.9387 241.662 32.216L244.398 37H241.934L239.006 31.768L240.414 32.6H237.422V37H235.246ZM237.422 30.68H239.71C240.105 30.68 240.446 30.6053 240.734 30.456C241.022 30.296 241.246 30.0773 241.406 29.8C241.566 29.5227 241.646 29.2027 241.646 28.84C241.646 28.4667 241.566 28.1467 241.406 27.88C241.246 27.6027 241.022 27.3893 240.734 27.24C240.446 27.08 240.105 27 239.71 27H237.422V30.68ZM246.944 37V25.08H249.12V31.288L248.528 31.08L253.6 25.08H256.336L251.584 30.712L251.712 29.176L256.48 37H253.92L250.72 31.752L249.12 33.656V37H246.944Z" fill="#6D6D6D"/>
<path d="M173.619 252L169.395 240.08H171.427L174.883 250.256H174.483L177.923 240.08H179.955L175.731 252H173.619ZM183.132 252.192C182.546 252.192 182.028 252.091 181.58 251.888C181.143 251.675 180.802 251.387 180.556 251.024C180.311 250.651 180.188 250.213 180.188 249.712C180.188 249.243 180.29 248.821 180.492 248.448C180.706 248.075 181.031 247.76 181.468 247.504C181.906 247.248 182.455 247.067 183.116 246.96L186.124 246.464V247.888L183.468 248.352C182.988 248.437 182.636 248.592 182.412 248.816C182.188 249.029 182.076 249.307 182.076 249.648C182.076 249.979 182.199 250.251 182.444 250.464C182.7 250.667 183.026 250.768 183.42 250.768C183.911 250.768 184.338 250.661 184.7 250.448C185.074 250.235 185.362 249.952 185.564 249.6C185.767 249.237 185.868 248.837 185.868 248.4V246.176C185.868 245.749 185.708 245.403 185.388 245.136C185.079 244.859 184.663 244.72 184.14 244.72C183.66 244.72 183.239 244.848 182.876 245.104C182.524 245.349 182.263 245.669 182.092 246.064L180.588 245.312C180.748 244.885 181.01 244.512 181.372 244.192C181.735 243.861 182.156 243.605 182.636 243.424C183.127 243.243 183.644 243.152 184.188 243.152C184.871 243.152 185.474 243.28 185.996 243.536C186.53 243.792 186.94 244.149 187.228 244.608C187.527 245.056 187.676 245.579 187.676 246.176V252H185.948V250.432L186.316 250.48C186.114 250.832 185.852 251.136 185.532 251.392C185.223 251.648 184.866 251.845 184.46 251.984C184.066 252.123 183.623 252.192 183.132 252.192ZM189.79 252V243.344H191.518V245.088L191.358 244.832C191.55 244.267 191.86 243.861 192.286 243.616C192.713 243.36 193.225 243.232 193.822 243.232H194.35V244.88H193.598C193.001 244.88 192.516 245.067 192.142 245.44C191.78 245.803 191.598 246.325 191.598 247.008V252H189.79ZM195.587 252V243.344H197.395V252H195.587ZM195.587 242.16V240.08H197.395V242.16H195.587ZM202.101 252.192C201.514 252.192 200.997 252.091 200.549 251.888C200.112 251.675 199.77 251.387 199.525 251.024C199.28 250.651 199.157 250.213 199.157 249.712C199.157 249.243 199.258 248.821 199.461 248.448C199.674 248.075 200 247.76 200.437 247.504C200.874 247.248 201.424 247.067 202.085 246.96L205.093 246.464V247.888L202.437 248.352C201.957 248.437 201.605 248.592 201.381 248.816C201.157 249.029 201.045 249.307 201.045 249.648C201.045 249.979 201.168 250.251 201.413 250.464C201.669 250.667 201.994 250.768 202.389 250.768C202.88 250.768 203.306 250.661 203.669 250.448C204.042 250.235 204.33 249.952 204.533 249.6C204.736 249.237 204.837 248.837 204.837 248.4V246.176C204.837 245.749 204.677 245.403 204.357 245.136C204.048 244.859 203.632 244.72 203.109 244.72C202.629 244.72 202.208 244.848 201.845 245.104C201.493 245.349 201.232 245.669 201.061 246.064L199.557 245.312C199.717 244.885 199.978 244.512 200.341 244.192C200.704 243.861 201.125 243.605 201.605 243.424C202.096 243.243 202.613 243.152 203.157 243.152C203.84 243.152 204.442 243.28 204.965 243.536C205.498 243.792 205.909 244.149 206.197 244.608C206.496 245.056 206.645 245.579 206.645 246.176V252H204.917V250.432L205.285 250.48C205.082 250.832 204.821 251.136 204.501 251.392C204.192 251.648 203.834 251.845 203.429 251.984C203.034 252.123 202.592 252.192 202.101 252.192ZM212.347 252.096C211.44 252.096 210.736 251.84 210.235 251.328C209.734 250.816 209.483 250.096 209.483 249.168V244.976H207.963V243.344H208.203C208.608 243.344 208.923 243.227 209.147 242.992C209.371 242.757 209.483 242.437 209.483 242.032V241.36H211.291V243.344H213.259V244.976H211.291V249.088C211.291 249.387 211.339 249.643 211.435 249.856C211.531 250.059 211.686 250.219 211.899 250.336C212.112 250.443 212.39 250.496 212.731 250.496C212.816 250.496 212.912 250.491 213.019 250.48C213.126 250.469 213.227 250.459 213.323 250.448V252C213.174 252.021 213.008 252.043 212.827 252.064C212.646 252.085 212.486 252.096 212.347 252.096ZM215.087 252V243.344H216.895V252H215.087ZM215.087 242.16V240.08H216.895V242.16H215.087ZM223.185 252.192C222.353 252.192 221.59 251.995 220.897 251.6C220.214 251.205 219.67 250.667 219.265 249.984C218.86 249.301 218.657 248.528 218.657 247.664C218.657 246.789 218.86 246.016 219.265 245.344C219.67 244.661 220.214 244.128 220.897 243.744C221.58 243.349 222.342 243.152 223.185 243.152C224.038 243.152 224.801 243.349 225.473 243.744C226.156 244.128 226.694 244.661 227.089 245.344C227.494 246.016 227.697 246.789 227.697 247.664C227.697 248.539 227.494 249.317 227.089 250C226.684 250.683 226.14 251.221 225.457 251.616C224.774 252 224.017 252.192 223.185 252.192ZM223.185 250.512C223.697 250.512 224.15 250.389 224.545 250.144C224.94 249.899 225.249 249.563 225.473 249.136C225.708 248.699 225.825 248.208 225.825 247.664C225.825 247.12 225.708 246.635 225.473 246.208C225.249 245.781 224.94 245.445 224.545 245.2C224.15 244.955 223.697 244.832 223.185 244.832C222.684 244.832 222.23 244.955 221.825 245.2C221.43 245.445 221.116 245.781 220.881 246.208C220.657 246.635 220.545 247.12 220.545 247.664C220.545 248.208 220.657 248.699 220.881 249.136C221.116 249.563 221.43 249.899 221.825 250.144C222.23 250.389 222.684 250.512 223.185 250.512ZM229.462 252V243.344H231.19V245.04L230.982 244.816C231.196 244.272 231.537 243.861 232.006 243.584C232.476 243.296 233.02 243.152 233.638 243.152C234.278 243.152 234.844 243.291 235.334 243.568C235.825 243.845 236.209 244.229 236.486 244.72C236.764 245.211 236.902 245.776 236.902 246.416V252H235.11V246.896C235.11 246.459 235.03 246.091 234.87 245.792C234.71 245.483 234.481 245.248 234.182 245.088C233.894 244.917 233.564 244.832 233.19 244.832C232.817 244.832 232.481 244.917 232.182 245.088C231.894 245.248 231.67 245.483 231.51 245.792C231.35 246.101 231.27 246.469 231.27 246.896V252H229.462Z" fill="#BCC2CF"/>
<path d="M-0.5 59H404" stroke="#4F4F4F"/>
<path opacity="0.5" d="M-0.5 219H404" stroke="#4F4F4F"/>
<path opacity="0.5" d="M-0.5 273H404" stroke="#4F4F4F"/>
</g>
</g>
<defs>
<clipPath id="bgblur_1_911_794_clip_path" transform="translate(30 30)"><path d="M0 20C0 8.9543 8.95431 0 20 0H385C396.046 0 405 8.95431 405 20V253C405 264.046 396.046 273 385 273H20C8.95429 273 0 264.046 0 253V20Z"/>
</clipPath><linearGradient id="paint0_linear_911_794" x1="-18.7711" y1="241.458" x2="209.408" y2="-170.47" gradientUnits="userSpaceOnUse">
<stop stop-color="#0C0C0C"/>
<stop offset="1" stop-color="#151B15"/>
</linearGradient>
<clipPath id="clip0_911_794">
<path d="M0 20C0 8.9543 8.95431 0 20 0H385C396.046 0 405 8.95431 405 20V253C405 264.046 396.046 273 385 273H20C8.95429 273 0 264.046 0 253V20Z" fill="white"/>
</clipPath>
</defs>
</svg>
