<svg width="555" height="95" viewBox="0 0 555 95" fill="none" xmlns="http://www.w3.org/2000/svg">
<path d="M512.516 92.8062C512 90.9157 511.613 88.8963 511.356 86.748C511.184 84.5997 511.098 82.1077 511.098 79.2719H510.582V48.2076C510.582 45.5437 509.68 43.4813 507.875 42.0205C506.157 40.4737 503.579 39.7003 500.141 39.7003C496.876 39.7003 494.255 40.2589 492.279 41.376C490.388 42.4931 489.142 44.1258 488.541 46.2741H470.108C470.968 40.3448 474.018 35.4467 479.26 31.5798C484.502 27.7128 491.677 25.7794 500.786 25.7794C510.238 25.7794 517.457 27.8847 522.441 32.0954C527.425 36.306 529.917 42.3642 529.917 50.2699V79.2719C529.917 81.4202 530.046 83.6115 530.304 85.8457C530.647 87.994 531.163 90.3142 531.85 92.8062H512.516ZM489.572 94.0952C483.041 94.0952 477.842 92.4625 473.975 89.1971C470.108 85.8457 468.175 81.4202 468.175 75.9206C468.175 69.8194 470.452 64.9213 475.006 61.2263C479.647 57.4453 486.092 54.9962 494.341 53.8791L513.547 51.1722V62.3863L497.563 64.8354C494.126 65.351 491.591 66.2962 489.958 67.6711C488.326 69.0461 487.509 70.9366 487.509 73.3426C487.509 75.4909 488.283 77.1237 489.83 78.2408C491.376 79.3579 493.439 79.9164 496.017 79.9164C500.056 79.9164 503.493 78.8423 506.329 76.694C509.164 74.4598 510.582 71.8818 510.582 68.9601L512.387 79.2719C510.496 84.1701 507.618 87.8651 503.751 90.3572C499.884 92.8492 495.157 94.0952 489.572 94.0952Z" fill="white"/>
<path d="M422.173 92.8062V27.0683H441.121V42.5361H441.507V92.8062H422.173ZM441.507 58.5194L439.832 42.9228C441.378 37.3372 443.913 33.0836 447.437 30.1619C450.96 27.2402 455.342 25.7794 460.584 25.7794C462.217 25.7794 463.42 25.9512 464.193 26.2949V44.3406C463.764 44.1688 463.162 44.0828 462.389 44.0828C461.615 43.9969 460.67 43.954 459.553 43.954C453.366 43.954 448.811 45.0711 445.89 47.3053C442.968 49.4536 441.507 53.1916 441.507 58.5194Z" fill="white"/>
<path d="M379.093 94.0951C371.789 94.0951 365.43 92.6773 360.016 89.8415C354.603 86.9198 350.392 82.881 347.384 77.7251C344.463 72.5692 343.002 66.6399 343.002 59.9372C343.002 53.1486 344.463 47.2193 347.384 42.1493C350.392 36.9934 354.56 32.9976 359.888 30.1618C365.215 27.2401 371.402 25.7793 378.449 25.7793C385.237 25.7793 391.124 27.1542 396.108 29.904C401.092 32.6538 404.959 36.4778 407.709 41.3759C410.458 46.2741 411.833 52.0315 411.833 58.6482C411.833 60.0232 411.79 61.3121 411.704 62.5152C411.619 63.6323 411.49 64.7064 411.318 65.7376H354.345V52.9767H395.721L392.37 55.2969C392.37 49.9691 391.081 46.0592 388.503 43.5672C386.011 40.9892 382.574 39.7003 378.191 39.7003C373.121 39.7003 369.168 41.4189 366.332 44.8562C363.583 48.2935 362.208 53.4494 362.208 60.3239C362.208 67.0266 363.583 72.0106 366.332 75.2761C369.168 78.5415 373.379 80.1742 378.964 80.1742C382.058 80.1742 384.722 79.6586 386.956 78.6274C389.19 77.5962 390.866 75.9205 391.983 73.6004H410.158C408.009 79.9593 404.314 84.9864 399.072 88.6814C393.917 92.2906 387.257 94.0951 379.093 94.0951Z" fill="white"/>
<path d="M313.416 92.8064V0H332.75V92.8064H313.416Z" fill="white"/>
<path d="M270.336 94.0952C263.032 94.0952 256.673 92.6773 251.259 89.8416C245.845 86.9199 241.635 82.8811 238.627 77.7252C235.705 72.5693 234.244 66.64 234.244 59.9373C234.244 53.1487 235.705 47.2194 238.627 42.1494C241.635 36.9935 245.802 32.9976 251.13 30.1619C256.458 27.2402 262.645 25.7794 269.691 25.7794C276.48 25.7794 282.366 27.1543 287.35 29.9041C292.334 32.6539 296.201 36.4779 298.951 41.376C301.701 46.2741 303.076 52.0315 303.076 58.6483C303.076 60.0232 303.033 61.3122 302.947 62.5152C302.861 63.6324 302.732 64.7065 302.56 65.7377H245.587V52.9768H286.964L283.612 55.297C283.612 49.9692 282.323 46.0593 279.745 43.5673C277.253 40.9893 273.816 39.7003 269.433 39.7003C264.364 39.7003 260.411 41.419 257.575 44.8562C254.825 48.2935 253.45 53.4494 253.45 60.324C253.45 67.0267 254.825 72.0107 257.575 75.2761C260.411 78.5415 264.621 80.1742 270.207 80.1742C273.3 80.1742 275.964 79.6586 278.199 78.6275C280.433 77.5963 282.108 75.9206 283.226 73.6004H301.4C299.252 79.9594 295.557 84.9864 290.315 88.6815C285.159 92.2906 278.499 94.0952 270.336 94.0952Z" fill="white"/>
<path d="M197.175 94.0952C190.3 94.0952 184.242 92.6344 179 89.7127C173.758 86.791 169.634 82.7522 166.626 77.5963C163.704 72.4404 162.243 66.554 162.243 59.9373C162.243 53.3205 163.704 47.4342 166.626 42.2783C169.634 37.1224 173.758 33.0836 179 30.1619C184.242 27.2402 190.3 25.7794 197.175 25.7794C202.932 25.7794 208.088 26.8535 212.642 29.0018C217.283 31.0642 221.064 33.9429 223.985 37.638C226.993 41.333 228.927 45.6726 229.786 50.6566H211.096C210.15 47.4772 208.432 45.0711 205.94 43.4384C203.534 41.8057 200.698 40.9893 197.433 40.9893C194.339 40.9893 191.632 41.7627 189.312 43.3095C187.078 44.8562 185.359 47.0475 184.156 49.8832C182.953 52.719 182.351 56.0703 182.351 59.9373C182.351 63.8042 182.953 67.1556 184.156 69.9913C185.359 72.8271 187.078 75.0183 189.312 76.5651C191.632 78.1119 194.339 78.8853 197.433 78.8853C200.698 78.8853 203.534 78.0689 205.94 76.4362C208.432 74.8035 210.15 72.3974 211.096 69.2179H229.786C228.927 74.202 226.993 78.5415 223.985 82.2366C221.064 85.9317 217.283 88.8534 212.642 91.0016C208.088 93.064 202.932 94.0952 197.175 94.0952Z" fill="white"/>
<path d="M125.173 94.0952C118.298 94.0952 112.24 92.6344 106.998 89.7127C101.756 86.791 97.6314 82.7522 94.6237 77.5963C91.7021 72.4404 90.2412 66.554 90.2412 59.9373C90.2412 53.3205 91.7021 47.4342 94.6237 42.2783C97.6314 37.1224 101.756 33.0836 106.998 30.1619C112.24 27.2402 118.298 25.7794 125.173 25.7794C130.93 25.7794 136.086 26.8535 140.64 29.0018C145.281 31.0642 149.062 33.9429 151.983 37.638C154.991 41.333 156.924 45.6726 157.784 50.6566H139.093C138.148 47.4772 136.43 45.0711 133.938 43.4384C131.531 41.8057 128.696 40.9893 125.43 40.9893C122.337 40.9893 119.63 41.7627 117.31 43.3095C115.076 44.8562 113.357 47.0475 112.154 49.8832C110.951 52.719 110.349 56.0703 110.349 59.9373C110.349 63.8042 110.951 67.1556 112.154 69.9913C113.357 72.8271 115.076 75.0183 117.31 76.5651C119.63 78.1119 122.337 78.8853 125.43 78.8853C128.696 78.8853 131.531 78.0689 133.938 76.4362C136.43 74.8035 138.148 72.3974 139.093 69.2179H157.784C156.924 74.202 154.991 78.5415 151.983 82.2366C149.062 85.9317 145.281 88.8534 140.64 91.0016C136.086 93.064 130.93 94.0952 125.173 94.0952Z" fill="white"/>
<path d="M0 92.8064L33.2556 0H50.2701L19.7214 92.8064H0ZM68.0581 92.8064L37.6382 0H55.4261L88.6817 92.8064H68.0581ZM17.5301 56.8439H69.6048V72.3117H17.5301V56.8439Z" fill="white"/>
<path d="M532.033 20.2381L534.526 17.862V7.65408L532.033 10.0779V20.2381Z" fill="white"/>
<path d="M538.461 14.1103L536.1 16.3613V6.12326L538.461 3.82704V14.1103Z" fill="white"/>
<path d="M540.036 12.6096V2.29622L542.397 0V10.3586L540.036 12.6096Z" fill="white"/>
<path d="M543.971 10.3616V0.00301277L546.332 2.30828V12.6215L543.971 10.3616Z" fill="white"/>
<path d="M547.907 14.128V3.84512L550.268 6.15038V16.3879L547.907 14.128Z" fill="white"/>
<path d="M551.842 17.8945V7.68723L554.291 10.0779V20.2381L551.842 17.8945Z" fill="white"/>
<path d="M551.886 19.1353L552.232 19.47L553.984 21.1773L553.991 21.1712L553.991 21.1715L551.886 23.2264V19.1353Z" fill="white"/>
<path d="M536.843 16.8751L536.144 17.5564V24.7904L538.505 27.0866V16.8033L537.703 16.039L536.843 16.8751Z" fill="white"/>
<path d="M534.482 19.1755L532.428 21.177L534.482 23.1745V19.1755Z" fill="white"/>
<path d="M542.441 20.555V30.9136L540.079 28.6174V18.304L542.441 20.555Z" fill="white"/>
<path d="M544.015 20.5506L546.376 18.2861V28.6054L544.015 30.9106V20.5506Z" fill="white"/>
<path d="M547.95 27.0685V16.7765L548.702 16.0555L550.224 17.5278V24.8486L547.95 27.0685Z" fill="white"/>
</svg>
