<svg width="180" height="257" viewBox="0 0 180 257" fill="none" xmlns="http://www.w3.org/2000/svg">
<path d="M0 167.648L20.1572 147.965V63.4046L0 83.4827V167.648Z" fill="white"/>
<path d="M51.9843 116.887L32.888 135.534V50.7237L51.9843 31.7023V116.887Z" fill="white"/>
<path d="M64.7151 104.455V19.0214L83.8114 0V85.8084L64.7151 104.455Z" fill="white"/>
<path d="M96.5422 85.8329V0.0249571L115.639 19.1212V104.553L96.5422 85.8329Z" fill="white"/>
<path d="M128.369 117.033V31.8521L147.466 50.9483V135.754L128.369 117.033Z" fill="white"/>
<path d="M160.196 148.234V63.6792L180 83.4827V167.648L160.196 148.234Z" fill="white"/>
<path d="M160.55 158.512L163.348 161.285L177.519 175.428L177.57 175.377L177.573 175.38L160.55 192.402V158.512Z" fill="white"/>
<path d="M38.8965 139.79L33.2416 145.433V205.358L52.3379 224.379V139.195L45.8541 132.863L38.8965 139.79Z" fill="white"/>
<path d="M19.8035 158.845L3.19109 175.425L19.8035 191.972V158.845Z" fill="white"/>
<path d="M84.165 170.273V256.081L65.0688 237.06V151.626L84.165 170.273Z" fill="white"/>
<path d="M96.8959 170.236L115.992 151.478V236.96L96.8959 256.056V170.236Z" fill="white"/>
<path d="M128.723 224.229V138.973L134.803 133L147.112 145.196V205.84L128.723 224.229Z" fill="white"/>
</svg>
